<svg xmlns="http://www.w3.org/2000/svg" version="1.1" x="0px" y="0px" viewBox="0 0 100 100" enableBackground="new 0 0 100 100" width="32px" height="32px" class="" fill="rgba(231, 163, 49, 1.0)">
    <path d="M74.383,49.456c-0.004-0.01-0.004-0.02-0.008-0.029c-0.019-0.045-0.05-0.079-0.072-0.121  c-0.033-0.062-0.057-0.127-0.099-0.186l-7-9.666c-0.013-0.018-0.03-0.031-0.044-0.048c-0.045-0.056-0.094-0.108-0.146-0.159  c-0.031-0.029-0.062-0.058-0.095-0.084c-0.018-0.014-0.031-0.031-0.05-0.044c-0.04-0.028-0.083-0.048-0.125-0.073  c-0.034-0.02-0.067-0.042-0.104-0.059c-0.082-0.041-0.167-0.07-0.253-0.094c-0.018-0.006-0.034-0.014-0.052-0.018 c-0.106-0.025-0.215-0.037-0.323-0.039c-0.008,0-0.016-0.003-0.023-0.003H34.011c-0.007,0-0.014,0.003-0.021,0.003  c-0.109,0.001-0.22,0.013-0.327,0.039c-0.015,0.003-0.027,0.01-0.043,0.014c-0.089,0.024-0.176,0.057-0.262,0.098  c-0.035,0.017-0.067,0.039-0.102,0.059c-0.042,0.025-0.086,0.044-0.126,0.073c-0.019,0.013-0.032,0.03-0.05,0.044  c-0.033,0.027-0.063,0.055-0.094,0.084c-0.054,0.051-0.103,0.104-0.146,0.158c-0.014,0.018-0.031,0.031-0.045,0.049l-7,9.666  c-0.041,0.058-0.064,0.122-0.098,0.184c-0.021,0.042-0.055,0.077-0.073,0.123c-0.004,0.01-0.004,0.02-0.008,0.029  c-0.036,0.094-0.055,0.191-0.071,0.29c-0.008,0.042-0.024,0.083-0.027,0.126c-0.013,0.14-0.007,0.281,0.021,0.42  c0.002,0.014,0.01,0.025,0.013,0.038c0.027,0.12,0.064,0.239,0.122,0.353c0.002,0.004,0.005,0.006,0.007,0.01  c0.021,0.039,0.052,0.07,0.075,0.107c0.055,0.086,0.109,0.17,0.178,0.24c0.006,0.006,0.01,0.016,0.016,0.021L48.94,74.05  c0.001,0.002,0.002,0.002,0.004,0.004c0.053,0.053,0.111,0.096,0.172,0.141c0.014,0.01,0.025,0.023,0.04,0.033  c0.004,0.002,0.007,0.006,0.011,0.008c0.002,0.002,0.004,0.004,0.006,0.004c0.045,0.029,0.096,0.053,0.144,0.078  c0.041,0.02,0.079,0.045,0.122,0.062c0.006,0.002,0.01,0.006,0.016,0.008c0.01,0.004,0.02,0.002,0.029,0.006  c0.012,0.004,0.024,0.006,0.037,0.01c0.029,0.01,0.059,0.02,0.089,0.027c0.127,0.035,0.257,0.059,0.391,0.059h0.001l0,0l0,0h0.001  c0.134,0,0.264-0.023,0.39-0.059c0.031-0.008,0.061-0.018,0.09-0.027c0.014-0.004,0.025-0.006,0.038-0.012  c0.009-0.002,0.019,0,0.027-0.004c0.006-0.002,0.01-0.006,0.016-0.008c0.046-0.02,0.09-0.045,0.134-0.07  c0.044-0.021,0.091-0.043,0.131-0.068c0.003-0.002,0.006-0.004,0.008-0.006c0.004-0.002,0.007-0.006,0.012-0.008  c0.02-0.014,0.037-0.033,0.056-0.047c0.054-0.041,0.107-0.08,0.154-0.127c0.001,0,0.003-0.002,0.005-0.004L74.05,51.062  c0.006-0.006,0.009-0.014,0.015-0.021c0.071-0.072,0.128-0.158,0.183-0.246c0.022-0.035,0.052-0.064,0.07-0.102  c0.003-0.004,0.006-0.006,0.008-0.01c0.059-0.115,0.098-0.237,0.125-0.36c0.002-0.011,0.008-0.02,0.01-0.03  c0.028-0.139,0.034-0.281,0.021-0.421c-0.003-0.041-0.019-0.081-0.026-0.122C74.438,49.649,74.42,49.552,74.383,49.456z   M63.051,41.834l-4.205,5.808l-5.401-5.808H63.051z M55.548,48.501H44.454l5.547-5.965L55.548,48.501z M46.558,41.834l-5.402,5.809  l-4.206-5.809H46.558z M34.011,42.892l4.062,5.609h-8.124L34.011,42.892z M30.632,51.501h9.355l6.007,15.361L30.632,51.501z   M50.001,68.87l-6.793-17.369h13.584L50.001,68.87z M54.008,66.862l6.006-15.361h9.354L54.008,66.862z M61.928,48.501l4.062-5.609  l4.062,5.609H61.928z M71.593,39.834c0.368,0,0.737-0.134,1.026-0.406l1.396-1.31c0.604-0.566,0.635-1.516,0.067-2.121  c-0.566-0.604-1.518-0.635-2.12-0.066l-1.396,1.31c-0.604,0.566-0.635,1.516-0.067,2.12C70.794,39.675,71.193,39.834,71.593,39.834z   M27.381,39.428c0.29,0.272,0.658,0.406,1.026,0.406c0.399,0,0.799-0.159,1.094-0.474c0.566-0.604,0.537-1.554-0.067-2.12  l-1.396-1.31c-0.604-0.568-1.556-0.537-2.12,0.066c-0.566,0.605-0.537,1.555,0.067,2.121L27.381,39.428z M60.904,34.454  c0.225,0.119,0.467,0.176,0.705,0.176c0.536,0,1.055-0.288,1.324-0.795l2.07-3.883c0.39-0.73,0.113-1.639-0.617-2.029  c-0.73-0.389-1.641-0.112-2.029,0.619l-2.07,3.883C59.897,33.155,60.174,34.063,60.904,34.454z M37.065,33.835  c0.271,0.507,0.789,0.795,1.326,0.795c0.237,0,0.479-0.057,0.703-0.176c0.731-0.391,1.008-1.299,0.619-2.029l-2.07-3.883  c-0.391-0.731-1.299-1.008-2.029-0.619c-0.731,0.391-1.008,1.299-0.619,2.029L37.065,33.835z M50,33.394c0.828,0,1.5-0.671,1.5-1.5  v-4.883c0-0.828-0.672-1.5-1.5-1.5c-0.829,0-1.5,0.672-1.5,1.5v4.883C48.5,32.723,49.171,33.394,50,33.394z"></path>
</svg>